<svg width="192" height="192" viewBox="0 0 192 192" xmlns="http://www.w3.org/2000/svg">
  <rect width="192" height="192" rx="20" fill="#000000"/>
  <g transform="translate(96, 96)">
    <!-- EQ Bars -->
    <rect x="-60" y="-20" width="8" height="40" rx="4" fill="#1db954" opacity="0.9">
      <animate attributeName="height" values="40;60;40" dur="2s" repeatCount="indefinite"/>
      <animate attributeName="y" values="-20;-30;-20" dur="2s" repeatCount="indefinite"/>
    </rect>
    <rect x="-44" y="-30" width="8" height="60" rx="4" fill="#1db954" opacity="0.9">
      <animate attributeName="height" values="60;80;60" dur="2.5s" repeatCount="indefinite"/>
      <animate attributeName="y" values="-30;-40;-30" dur="2.5s" repeatCount="indefinite"/>
    </rect>
    <rect x="-28" y="-40" width="8" height="80" rx="4" fill="#1db954" opacity="0.9">
      <animate attributeName="height" values="80;100;80" dur="1.5s" repeatCount="indefinite"/>
      <animate attributeName="y" values="-40;-50;-40" dur="1.5s" repeatCount="indefinite"/>
    </rect>
    <rect x="-12" y="-35" width="8" height="70" rx="4" fill="#ffa116" opacity="0.9">
      <animate attributeName="height" values="70;90;70" dur="2s" repeatCount="indefinite"/>
      <animate attributeName="y" values="-35;-45;-35" dur="2s" repeatCount="indefinite"/>
    </rect>
    <rect x="4" y="-25" width="8" height="50" rx="4" fill="#ffa116" opacity="0.9">
      <animate attributeName="height" values="50;70;50" dur="1.8s" repeatCount="indefinite"/>
      <animate attributeName="y" values="-25;-35;-25" dur="1.8s" repeatCount="indefinite"/>
    </rect>
    <rect x="20" y="-30" width="8" height="60" rx="4" fill="#e22134" opacity="0.9">
      <animate attributeName="height" values="60;80;60" dur="2.2s" repeatCount="indefinite"/>
      <animate attributeName="y" values="-30;-40;-30" dur="2.2s" repeatCount="indefinite"/>
    </rect>
    <rect x="36" y="-20" width="8" height="40" rx="4" fill="#e22134" opacity="0.9">
      <animate attributeName="height" values="40;60;40" dur="1.7s" repeatCount="indefinite"/>
      <animate attributeName="y" values="-20;-30;-20" dur="1.7s" repeatCount="indefinite"/>
    </rect>
    <rect x="52" y="-15" width="8" height="30" rx="4" fill="#e22134" opacity="0.9">
      <animate attributeName="height" values="30;50;30" dur="2.3s" repeatCount="indefinite"/>
      <animate attributeName="y" values="-15;-25;-15" dur="2.3s" repeatCount="indefinite"/>
    </rect>
  </g>
  <!-- Car Icon -->
  <g transform="translate(96, 140)">
    <path d="M-30 0 C-30 -8 -25 -12 -20 -12 L20 -12 C25 -12 30 -8 30 0 L30 5 C30 8 28 10 25 10 L-25 10 C-28 10 -30 8 -30 5 Z" fill="#ffffff" opacity="0.8"/>
    <rect x="-20" y="-8" width="10" height="6" rx="2" fill="#000000"/>
    <rect x="10" y="-8" width="10" height="6" rx="2" fill="#000000"/>
  </g>
</svg>