<svg width="512" height="512" viewBox="0 0 512 512" xmlns="http://www.w3.org/2000/svg">
  <rect width="512" height="512" rx="50" fill="#000000"/>
  <g transform="translate(256, 256)">
    <!-- EQ Bars -->
    <rect x="-160" y="-60" width="20" height="120" rx="10" fill="#1db954" opacity="0.9">
      <animate attributeName="height" values="120;160;120" dur="2s" repeatCount="indefinite"/>
      <animate attributeName="y" values="-60;-80;-60" dur="2s" repeatCount="indefinite"/>
    </rect>
    <rect x="-120" y="-80" width="20" height="160" rx="10" fill="#1db954" opacity="0.9">
      <animate attributeName="height" values="160;200;160" dur="2.5s" repeatCount="indefinite"/>
      <animate attributeName="y" values="-80;-100;-80" dur="2.5s" repeatCount="indefinite"/>
    </rect>
    <rect x="-80" y="-100" width="20" height="200" rx="10" fill="#1db954" opacity="0.9">
      <animate attributeName="height" values="200;240;200" dur="1.5s" repeatCount="indefinite"/>
      <animate attributeName="y" values="-100;-120;-100" dur="1.5s" repeatCount="indefinite"/>
    </rect>
    <rect x="-40" y="-90" width="20" height="180" rx="10" fill="#ffa116" opacity="0.9">
      <animate attributeName="height" values="180;220;180" dur="2s" repeatCount="indefinite"/>
      <animate attributeName="y" values="-90;-110;-90" dur="2s" repeatCount="indefinite"/>
    </rect>
    <rect x="0" y="-70" width="20" height="140" rx="10" fill="#ffa116" opacity="0.9">
      <animate attributeName="height" values="140;180;140" dur="1.8s" repeatCount="indefinite"/>
      <animate attributeName="y" values="-70;-90;-70" dur="1.8s" repeatCount="indefinite"/>
    </rect>
    <rect x="40" y="-80" width="20" height="160" rx="10" fill="#e22134" opacity="0.9">
      <animate attributeName="height" values="160;200;160" dur="2.2s" repeatCount="indefinite"/>
      <animate attributeName="y" values="-80;-100;-80" dur="2.2s" repeatCount="indefinite"/>
    </rect>
    <rect x="80" y="-60" width="20" height="120" rx="10" fill="#e22134" opacity="0.9">
      <animate attributeName="height" values="120;160;120" dur="1.7s" repeatCount="indefinite"/>
      <animate attributeName="y" values="-60;-80;-60" dur="1.7s" repeatCount="indefinite"/>
    </rect>
    <rect x="120" y="-50" width="20" height="100" rx="10" fill="#e22134" opacity="0.9">
      <animate attributeName="height" values="100;140;100" dur="2.3s" repeatCount="indefinite"/>
      <animate attributeName="y" values="-50;-70;-50" dur="2.3s" repeatCount="indefinite"/>
    </rect>
  </g>
  <!-- Car Icon -->
  <g transform="translate(256, 380)">
    <path d="M-80 0 C-80 -20 -70 -30 -55 -30 L55 -30 C70 -30 80 -20 80 0 L80 15 C80 22 75 27 68 27 L-68 27 C-75 27 -80 22 -80 15 Z" fill="#ffffff" opacity="0.8"/>
    <rect x="-55" y="-20" width="30" height="15" rx="5" fill="#000000"/>
    <rect x="25" y="-20" width="30" height="15" rx="5" fill="#000000"/>
  </g>
</svg>